<svg width="47" height="49" viewBox="0 0 47 49" fill="none" xmlns="http://www.w3.org/2000/svg">
<path d="M44.1125 0H1.9179C0.858755 0 0 0.914061 0 2.04163V46.9583C0 48.0859 0.858755 49 1.9179 49H44.1124C45.1716 49 46.0303 48.0859 46.0303 46.9584V2.04163C46.0304 0.914061 45.1718 0 44.1125 0ZM42.1946 44.9166H3.8359V4.08337H42.1946V44.9166Z" fill="#9D9D9D"/>
<path d="M36.4408 10.2085H9.58972C8.53048 10.2085 7.67181 11.1226 7.67181 12.2501C7.67172 13.3777 8.53048 14.2918 9.58972 14.2918H36.4408C37.5 14.2918 38.3587 13.3777 38.3587 12.2501C38.3587 11.1226 37.5001 10.2085 36.4408 10.2085Z" fill="#9D9D9D"/>
<path d="M36.4408 18.375H9.58972C8.53048 18.375 7.67181 19.2891 7.67181 20.4166C7.67172 21.5441 8.53048 22.4583 9.58972 22.4583H36.4408C37.5 22.4583 38.3587 21.5442 38.3587 20.4166C38.3587 19.2891 37.5001 18.375 36.4408 18.375Z" fill="#9D9D9D"/>
<path d="M36.4408 26.5415H9.58972C8.53048 26.5415 7.67181 27.4556 7.67181 28.5831C7.67172 29.7107 8.53048 30.6248 9.58972 30.6248H36.4408C37.5 30.6248 38.3587 29.7107 38.3587 28.5831C38.3587 27.4556 37.5001 26.5415 36.4408 26.5415Z" fill="#9D9D9D"/>
<path d="M36.4408 34.708H9.58972C8.53048 34.708 7.67181 35.6221 7.67181 36.7496C7.67172 37.8772 8.53048 38.7913 9.58972 38.7913H36.4408C37.5 38.7913 38.3587 37.8772 38.3587 36.7496C38.3587 35.6221 37.5001 34.708 36.4408 34.708Z" fill="#9D9D9D"/>
</svg>
