<svg width="63" height="38" viewBox="0 0 63 38" fill="none" xmlns="http://www.w3.org/2000/svg">
<path d="M5.10207 29.1839H1.27552C0.937229 29.1839 0.612796 28.9837 0.37359 28.6274C0.134384 28.2711 0 27.7878 0 27.2839V10.7159C0 10.212 0.134384 9.72874 0.37359 9.37242C0.612796 9.0161 0.937229 8.81592 1.27552 8.81592H5.10207C5.44036 8.81592 5.76479 9.0161 6.00399 9.37242C6.2432 9.72874 6.37758 10.212 6.37758 10.7159V27.2839C6.37758 27.7878 6.2432 28.2711 6.00399 28.6274C5.76479 28.9837 5.44036 29.1839 5.10207 29.1839ZM2.55103 25.3839H3.82655V12.6159H2.55103V25.3839Z" fill="#9D9D9D"/>
<path d="M10.2041 33.4211H5.10207C4.76379 33.4211 4.43935 33.2209 4.20015 32.8646C3.96094 32.5083 3.82656 32.025 3.82656 31.5211V6.4791C3.82656 5.97519 3.96094 5.49192 4.20015 5.1356C4.43935 4.77928 4.76379 4.5791 5.10207 4.5791H10.2041C10.3716 4.5791 10.5375 4.62825 10.6923 4.72373C10.847 4.81921 10.9876 4.95917 11.1061 5.1356C11.2245 5.31203 11.3185 5.52149 11.3826 5.752C11.4467 5.98252 11.4797 6.22959 11.4797 6.4791V31.5211C11.4797 31.7706 11.4467 32.0177 11.3826 32.2482C11.3185 32.4787 11.2245 32.6882 11.1061 32.8646C10.9876 33.041 10.847 33.181 10.6923 33.2765C10.5375 33.372 10.3716 33.4211 10.2041 33.4211ZM6.37759 29.6211H8.92862V8.3791H6.37759V29.6211Z" fill="#9D9D9D"/>
<path d="M18.6863 38H10.2041C9.86584 38 9.54141 37.7998 9.3022 37.4435C9.063 37.0872 8.92861 36.6039 8.92861 36.1V1.9C8.92861 1.39609 9.063 0.912815 9.3022 0.556496C9.54141 0.200177 9.86584 0 10.2041 0H18.6863C19.0246 0 19.349 0.200177 19.5882 0.556496C19.8274 0.912815 19.9618 1.39609 19.9618 1.9V36.1C19.9618 36.6039 19.8274 37.0872 19.5882 37.4435C19.349 37.7998 19.0246 38 18.6863 38ZM11.4796 34.2H17.4108V3.8H11.4796V34.2Z" fill="#9D9D9D"/>
<path d="M60.7911 29.1839H56.9646C56.6263 29.1839 56.3019 28.9837 56.0627 28.6274C55.8234 28.2711 55.6891 27.7878 55.6891 27.2839V10.7159C55.6891 10.212 55.8234 9.72874 56.0627 9.37242C56.3019 9.0161 56.6263 8.81592 56.9646 8.81592H60.7911C61.1294 8.81592 61.4538 9.0161 61.6931 9.37242C61.9323 9.72874 62.0666 10.212 62.0666 10.7159V27.2839C62.0666 27.7878 61.9323 28.2711 61.6931 28.6274C61.4538 28.9837 61.1294 29.1839 60.7911 29.1839ZM58.2401 25.3839H59.5156V12.6159H58.2401V25.3839Z" fill="#9D9D9D"/>
<path d="M56.9518 33.4211H51.8498C51.5115 33.4211 51.187 33.2209 50.9478 32.8646C50.7086 32.5083 50.5742 32.025 50.5742 31.5211V6.4791C50.5742 5.97519 50.7086 5.49192 50.9478 5.1356C51.187 4.77928 51.5115 4.5791 51.8498 4.5791H56.9518C57.2901 4.5791 57.6145 4.77928 57.8538 5.1356C58.093 5.49192 58.2273 5.97519 58.2273 6.4791V31.5211C58.2273 32.025 58.093 32.5083 57.8538 32.8646C57.6145 33.2209 57.2901 33.4211 56.9518 33.4211ZM53.1253 29.6211H55.6763V8.3791H53.1253V29.6211Z" fill="#9D9D9D"/>
<path d="M51.8498 38H43.3676C43.0293 38 42.7048 37.7998 42.4656 37.4435C42.2264 37.0872 42.092 36.6039 42.092 36.1V1.9C42.092 1.39609 42.2264 0.912815 42.4656 0.556496C42.7048 0.200177 43.0293 0 43.3676 0H51.8498C52.188 0 52.5125 0.200177 52.7517 0.556496C52.9909 0.912815 53.1253 1.39609 53.1253 1.9V36.1C53.1253 36.6039 52.9909 37.0872 52.7517 37.4435C52.5125 37.7998 52.188 38 51.8498 38ZM44.6431 34.2H50.5742V3.8H44.6431V34.2Z" fill="#9D9D9D"/>
<path d="M43.3676 24.7003H18.6863C18.348 24.7003 18.0236 24.5001 17.7844 24.1438C17.5452 23.7875 17.4108 23.3042 17.4108 22.8003V15.2003C17.4108 14.6964 17.5452 14.2131 17.7844 13.8568C18.0236 13.5005 18.348 13.3003 18.6863 13.3003H43.3676C43.7059 13.3003 44.0303 13.5005 44.2695 13.8568C44.5087 14.2131 44.6431 14.6964 44.6431 15.2003V22.8003C44.6431 23.3042 44.5087 23.7875 44.2695 24.1438C44.0303 24.5001 43.7059 24.7003 43.3676 24.7003ZM19.9618 20.9003H42.0921V17.1003H19.9618V20.9003Z" fill="#9D9D9D"/>
</svg>
