<svg width="85" height="65" viewBox="0 0 85 65" fill="none" xmlns="http://www.w3.org/2000/svg">
<path d="M7.6303 49.4645H2.46472C2.00805 49.4645 1.57009 49.1313 1.24718 48.5382C0.924268 47.9451 0.742859 47.1408 0.742859 46.302V18.725C0.742859 17.8863 0.924268 17.0819 1.24718 16.4888C1.57009 15.8957 2.00805 15.5625 2.46472 15.5625H7.6303C8.08697 15.5625 8.52493 15.8957 8.84784 16.4888C9.17075 17.0819 9.35216 17.8863 9.35216 18.725V46.302C9.35216 47.1408 9.17075 47.9451 8.84784 48.5382C8.52493 49.1313 8.08697 49.4645 7.6303 49.4645ZM4.18658 43.1395H5.90844V21.8875H4.18658V43.1395Z" fill="white"/>
<path d="M14.5177 56.517H7.63031C7.17364 56.517 6.73568 56.1838 6.41277 55.5907C6.08986 54.9976 5.90845 54.1933 5.90845 53.3545V11.6728C5.90845 10.834 6.08986 10.0296 6.41277 9.43653C6.73568 8.84344 7.17364 8.51025 7.63031 8.51025H14.5177C14.7439 8.51025 14.9678 8.59205 15.1767 8.75098C15.3856 8.90992 15.5754 9.14286 15.7353 9.43653C15.8952 9.73019 16.022 10.0788 16.1085 10.4625C16.1951 10.8462 16.2396 11.2574 16.2396 11.6728V53.3545C16.2396 53.7698 16.1951 54.181 16.1085 54.5647C16.022 54.9484 15.8952 55.2971 15.7353 55.5907C15.5754 55.8844 15.3856 56.1173 15.1767 56.2763C14.9678 56.4352 14.7439 56.517 14.5177 56.517ZM9.35217 50.192H12.7959V14.8353H9.35217V50.192Z" fill="white"/>
<path d="M25.9681 64.1387H14.5177C14.0611 64.1387 13.6231 63.8055 13.3002 63.2124C12.9773 62.6193 12.7959 61.8149 12.7959 60.9762V4.05117C12.7959 3.21242 12.9773 2.40803 13.3002 1.81494C13.6231 1.22186 14.0611 0.888672 14.5177 0.888672H25.9681C26.4248 0.888672 26.8627 1.22186 27.1856 1.81494C27.5086 2.40803 27.69 3.21242 27.69 4.05117V60.9762C27.69 61.8149 27.5086 62.6193 27.1856 63.2124C26.8627 63.8055 26.4248 64.1387 25.9681 64.1387ZM16.2396 57.8137H24.2462V7.21367H16.2396V57.8137Z" fill="white"/>
<path d="M82.8067 49.4645H77.6411C77.1844 49.4645 76.7465 49.1313 76.4236 48.5382C76.1007 47.9451 75.9193 47.1408 75.9193 46.302V18.725C75.9193 17.8863 76.1007 17.0819 76.4236 16.4888C76.7465 15.8957 77.1844 15.5625 77.6411 15.5625H82.8067C83.2634 15.5625 83.7013 15.8957 84.0242 16.4888C84.3471 17.0819 84.5286 17.8863 84.5286 18.725V46.302C84.5286 47.1408 84.3471 47.9451 84.0242 48.5382C83.7013 49.1313 83.2634 49.4645 82.8067 49.4645ZM79.363 43.1395H81.0848V21.8875H79.363V43.1395Z" fill="white"/>
<path d="M77.6239 56.517H70.7365C70.2798 56.517 69.8418 56.1838 69.5189 55.5907C69.196 54.9976 69.0146 54.1933 69.0146 53.3545V11.6728C69.0146 10.834 69.196 10.0296 69.5189 9.43653C69.8418 8.84344 70.2798 8.51025 70.7365 8.51025H77.6239C78.0806 8.51025 78.5185 8.84344 78.8415 9.43653C79.1644 10.0296 79.3458 10.834 79.3458 11.6728V53.3545C79.3458 54.1933 79.1644 54.9976 78.8415 55.5907C78.5185 56.1838 78.0806 56.517 77.6239 56.517ZM72.4583 50.192H75.9021V14.8353H72.4583V50.192Z" fill="white"/>
<path d="M70.7365 64.1387H59.2861C58.8294 64.1387 58.3915 63.8055 58.0686 63.2124C57.7457 62.6193 57.5642 61.8149 57.5642 60.9762V4.05117C57.5642 3.21242 57.7457 2.40803 58.0686 1.81494C58.3915 1.22186 58.8294 0.888672 59.2861 0.888672H70.7365C71.1931 0.888672 71.6311 1.22186 71.954 1.81494C72.2769 2.40803 72.4583 3.21242 72.4583 4.05117V60.9762C72.4583 61.8149 72.2769 62.6193 71.954 63.2124C71.6311 63.8055 71.1931 64.1387 70.7365 64.1387ZM61.008 57.8137H69.0146V7.21367H61.008V57.8137Z" fill="white"/>
<path d="M59.2861 42.0014H25.9681C25.5114 42.0014 25.0735 41.6682 24.7506 41.0751C24.4277 40.482 24.2462 39.6776 24.2462 38.8389V26.1889C24.2462 25.3501 24.4277 24.5457 24.7506 23.9526C25.0735 23.3596 25.5114 23.0264 25.9681 23.0264H59.2861C59.7428 23.0264 60.1807 23.3596 60.5036 23.9526C60.8266 24.5457 61.008 25.3501 61.008 26.1889V38.8389C61.008 39.6776 60.8266 40.482 60.5036 41.0751C60.1807 41.6682 59.7428 42.0014 59.2861 42.0014ZM27.69 35.6764H57.5642V29.3514H27.69V35.6764Z" fill="white"/>
</svg>
