<svg width="81" height="67" viewBox="0 0 81 67" fill="none" xmlns="http://www.w3.org/2000/svg">
<path d="M79.4739 27.0741C79.9733 25.2746 80.2153 23.4219 80.1937 21.5638C80.1937 15.8883 77.7667 10.4454 73.4466 6.43224C69.1264 2.4191 63.2671 0.164551 57.1575 0.164551H56.8983C50.8044 0.202593 44.9751 2.48213 40.6866 6.50407C36.2557 2.58666 30.3612 0.419435 24.2444 0.45879C20.7328 0.498651 17.2754 1.26924 14.1265 2.71389C10.9777 4.15853 8.21752 6.24049 6.049 8.80663C3.88047 11.3728 2.35875 14.3578 1.59577 17.5423C0.832778 20.7267 0.847925 24.0295 1.64009 27.2078C1.25464 27.4562 0.940339 27.7883 0.724543 28.1752C0.508747 28.5622 0.397986 28.9922 0.401894 29.428C0.401894 30.1374 0.705273 30.8178 1.24529 31.3194C1.78531 31.8211 2.51773 32.1029 3.28143 32.1029H3.4254C4.59065 34.2634 6.12737 36.2331 7.97507 37.9342L9.21327 38.9774C9.33202 39.1321 9.46706 39.2755 9.6164 39.4054L39.0452 66.1544C39.5816 66.6485 40.3055 66.9271 41.0609 66.9301C41.4419 66.9286 41.8188 66.8569 42.1697 66.7192C42.5207 66.5814 42.8387 66.3804 43.1054 66.1276L71.9007 38.7634C72.2101 38.4666 72.446 38.1105 72.5918 37.7202L73.5132 36.8909C75.018 35.4603 76.2976 33.8393 77.3142 32.0761H78.1205C78.8842 32.0761 79.6166 31.7943 80.1566 31.2927C80.6966 30.791 81 30.1107 81 29.4012C80.9935 28.9219 80.8483 28.453 80.5799 28.0436C80.3114 27.6342 79.9294 27.2993 79.4739 27.0741ZM11.8912 10.7839C13.5187 9.23938 15.4579 8.0079 17.598 7.15985C19.738 6.31179 22.037 5.86379 24.3635 5.84143C26.69 5.81907 28.9985 6.2228 31.157 7.02955C33.3154 7.8363 35.2816 9.03025 36.9432 10.5432C37.4481 10.9945 37.9195 11.477 38.3541 11.9876C38.4826 12.1513 38.6272 12.3036 38.7861 12.4423C39.3735 12.9139 40.1322 13.1597 40.9079 13.1299C41.6836 13.1001 42.4179 12.7968 42.9614 12.2819L43.2781 11.9341C43.6742 11.4022 44.1276 10.9092 44.6315 10.4629C46.2302 8.93356 48.1409 7.71539 50.252 6.87952C52.3631 6.04365 54.6323 5.60685 56.9271 5.5946H57.0999C59.8424 5.57383 62.5507 6.15983 65.0011 7.30415C67.4514 8.44846 69.5732 10.1182 71.1912 12.1753C72.8091 14.2324 73.8766 16.6177 74.3054 19.134C74.7343 21.6504 74.5121 24.2253 73.6572 26.6461L47.1943 26.3518C46.6291 26.3523 46.0765 26.5072 45.6054 26.7974C45.1343 27.0875 44.7656 27.5 44.5451 27.9835L43.5661 24.4259C43.4459 24.0198 43.2241 23.6458 42.9189 23.3344C42.6137 23.023 42.2336 22.7829 41.8096 22.6337C41.3792 22.4851 40.9168 22.4343 40.461 22.4855C40.0051 22.5367 39.5691 22.6884 39.1892 22.928L35.561 25.2016L31.5296 14.502C31.3561 14.0402 31.0496 13.6315 30.6435 13.3202C30.2373 13.0089 29.7471 12.8071 29.226 12.7366C28.6862 12.6411 28.1282 12.6911 27.6179 12.8807C27.1077 13.0703 26.6665 13.3915 26.3465 13.8065L16.4121 26.3518L7.42795 26.5658C6.62413 23.8022 6.61319 20.8913 7.39623 18.1225C8.17926 15.3538 9.72897 12.8237 11.8912 10.7839ZM69.4819 33.1193C68.9941 33.5963 68.4643 34.0347 67.8981 34.43C67.3235 34.818 66.9235 35.3896 66.7751 36.035L41.0609 60.4301L14.31 36.1152C14.1222 35.7725 13.857 35.4714 13.5326 35.2325C13.0101 34.8771 12.5191 34.4835 12.064 34.0555C11.3498 33.3906 10.7039 32.6652 10.1347 31.8889L17.967 31.7016C18.4067 31.6903 18.8378 31.5856 19.2271 31.3955C19.6165 31.2054 19.9537 30.9349 20.2131 30.6049L27.7863 21.002L31.2417 30.2304C31.387 30.6175 31.6262 30.9684 31.9408 31.256C32.2553 31.5435 32.6368 31.7601 33.0558 31.8889C33.4762 32.0203 33.9237 32.0597 34.3633 32.004C34.8028 31.9484 35.2226 31.7991 35.5898 31.5679L38.9876 29.428L41.2625 37.1852C41.4207 37.7336 41.7627 38.221 42.239 38.5769C42.7153 38.9327 43.3011 39.1386 43.9116 39.1646H44.0556C44.6357 39.163 45.2017 38.9987 45.6795 38.6933C46.1574 38.3878 46.5248 37.9554 46.7336 37.4527L49.1236 31.7016L70.4609 31.9424C70.1605 32.3528 69.8336 32.7458 69.4819 33.1193Z" fill="white"/>
</svg>
