<svg width="60" height="67" viewBox="0 0 60 67" fill="none" xmlns="http://www.w3.org/2000/svg">
<path d="M57.5153 0H2.84846C1.47624 0 0.363647 1.23375 0.363647 2.7557V63.382C0.363647 64.904 1.47624 66.1378 2.84846 66.1378H57.5152C58.8875 66.1378 60 64.904 60 63.3821V2.7557C60.0001 1.23375 58.8878 0 57.5153 0ZM55.0305 60.6263H5.33339V5.51153H55.0305V60.6263Z" fill="white"/>
<path d="M47.5759 13.7788H12.7879C11.4156 13.7788 10.3031 15.0126 10.3031 16.5345C10.303 18.0565 11.4156 19.2902 12.7879 19.2902H47.5759C48.9482 19.2902 50.0607 18.0565 50.0607 16.5345C50.0607 15.0126 48.9484 13.7788 47.5759 13.7788Z" fill="white"/>
<path d="M47.5759 24.8018H12.7879C11.4156 24.8018 10.3031 26.0355 10.3031 27.5575C10.303 29.0793 11.4156 30.3132 12.7879 30.3132H47.5759C48.9482 30.3132 50.0607 29.0794 50.0607 27.5575C50.0607 26.0355 48.9484 24.8018 47.5759 24.8018Z" fill="white"/>
<path d="M47.5759 35.8242H12.7879C11.4156 35.8242 10.3031 37.058 10.3031 38.5799C10.303 40.1019 11.4156 41.3356 12.7879 41.3356H47.5759C48.9482 41.3356 50.0607 40.1019 50.0607 38.5799C50.0607 37.058 48.9484 35.8242 47.5759 35.8242Z" fill="white"/>
<path d="M47.5759 46.8477H12.7879C11.4156 46.8477 10.3031 48.0814 10.3031 49.6034C10.303 51.1253 11.4156 52.3591 12.7879 52.3591H47.5759C48.9482 52.3591 50.0607 51.1253 50.0607 49.6034C50.0607 48.0814 48.9484 46.8477 47.5759 46.8477Z" fill="white"/>
</svg>
