<svg width="105" height="105" viewBox="0 0 105 105" fill="none" xmlns="http://www.w3.org/2000/svg">
<path d="M52.5885 0.390625C81.3229 0.390625 104.656 23.724 104.656 52.4635C104.656 81.2031 81.3229 104.536 52.5885 104.536C23.849 104.536 0.515625 81.2031 0.515625 52.4635C0.515625 23.724 23.849 0.390625 52.5885 0.390625ZM52.5885 8.20312C28.1615 8.20312 8.32812 28.0365 8.32812 52.4635C8.32812 76.8906 28.1615 96.7239 52.5885 96.7239C77.0156 96.7239 96.8437 76.8906 96.8437 52.4635C96.8437 28.0365 77.0156 8.20312 52.5885 8.20312ZM44.6302 32.7604C44.6302 32.7604 36.8073 40.599 27.6771 49.7344C26.9115 50.5 26.5312 51.5 26.5312 52.5C26.5312 53.5 26.9115 54.4948 27.6771 55.2604C36.8073 64.3958 44.625 72.2292 44.625 72.2292C45.3802 72.9844 46.3698 73.3594 47.3646 73.3594C48.3646 73.3542 49.3646 72.974 50.1302 72.2083C51.651 70.6823 51.6615 68.2188 50.1458 66.7031L39.849 56.4062H74.7083C76.8646 56.4062 78.6146 54.6562 78.6146 52.5C78.6146 50.3437 76.8646 48.5937 74.7083 48.5937H39.849L50.151 38.2865C51.6615 36.7812 51.6458 34.3177 50.1198 32.7969C49.3542 32.0312 48.3542 31.6458 47.3594 31.6406C46.3698 31.6406 45.3802 32.0104 44.6302 32.7604Z" fill="white"/>
</svg>
