<svg width="105" height="105" viewBox="0 0 105 105" fill="none" xmlns="http://www.w3.org/2000/svg">
<path d="M52.5104 0.416504C81.25 0.416504 104.583 23.7498 104.583 52.4894C104.583 81.2238 81.25 104.557 52.5104 104.557C23.776 104.557 0.442688 81.2238 0.442688 52.4894C0.442688 23.7498 23.776 0.416504 52.5104 0.416504ZM52.5104 8.229C28.0833 8.229 8.25519 28.0623 8.25519 52.4894C8.25519 76.9165 28.0833 96.7446 52.5104 96.7446C76.9375 96.7446 96.7708 76.9165 96.7708 52.4894C96.7708 28.0623 76.9375 8.229 52.5104 8.229ZM48.6198 48.5936H30.3906C28.2344 48.5936 26.4844 50.3436 26.4844 52.4998C26.4844 54.6561 28.2344 56.4061 30.3906 56.4061H48.6198V74.6352C48.6198 76.7915 50.3698 78.5415 52.526 78.5415C54.6823 78.5415 56.4323 76.7915 56.4323 74.6352V56.4061H74.6614C76.8177 56.4061 78.5677 54.6561 78.5677 52.4998C78.5677 50.3436 76.8177 48.5936 74.6614 48.5936H56.4323V30.3644C56.4323 28.2082 54.6823 26.4582 52.526 26.4582C50.3698 26.4582 48.6198 28.2082 48.6198 30.3644V48.5936Z" fill="white"/>
</svg>
