<svg width="24" height="28" viewBox="0 0 24 28" fill="none" xmlns="http://www.w3.org/2000/svg">
<path fill-rule="evenodd" clip-rule="evenodd" d="M20.1667 28H3.83337C2.54537 28 1.50004 26.9547 1.50004 25.6667V7H22.5V25.6667C22.5 26.9547 21.4547 28 20.1667 28ZM9.66671 11.6667C9.66671 11.0227 9.14404 10.5 8.50004 10.5C7.85604 10.5 7.33337 11.0227 7.33337 11.6667V22.1667C7.33337 22.8107 7.85604 23.3333 8.50004 23.3333C9.14404 23.3333 9.66671 22.8107 9.66671 22.1667V11.6667ZM16.6667 11.6667C16.6667 11.0227 16.144 10.5 15.5 10.5C14.856 10.5 14.3334 11.0227 14.3334 11.6667V22.1667C14.3334 22.8107 14.856 23.3333 15.5 23.3333C16.144 23.3333 16.6667 22.8107 16.6667 22.1667V11.6667ZM23.6667 5.83333H0.333374V3.5H7.33337V1.75C7.33337 0.785167 8.11854 0 9.08337 0H14.9167C15.8792 0 16.6667 0.782833 16.6667 1.75V3.5H23.6667V5.83333ZM9.66671 3.5H14.3334V2.33333H9.66671V3.5Z" fill="#9D9D9D"/>
</svg>
