<svg width="105" height="105" viewBox="0 0 105 105" fill="none" xmlns="http://www.w3.org/2000/svg">
<path d="M52.4896 0.442871C81.224 0.442871 104.557 23.7762 104.557 52.5106C104.557 81.2502 81.224 104.583 52.4896 104.583C23.75 104.583 0.416668 81.2502 0.416668 52.5106C0.416668 23.7762 23.75 0.442871 52.4896 0.442871ZM52.4896 8.25537C28.0625 8.25537 8.22917 28.0835 8.22917 52.5106C8.22917 76.9377 28.0625 96.771 52.4896 96.771C76.9167 96.771 96.7448 76.9377 96.7448 52.5106C96.7448 28.0835 76.9167 8.25537 52.4896 8.25537ZM26.1927 54.5366L46.25 72.4012C46.9896 73.0679 47.9219 73.3908 48.849 73.3908C49.901 73.3908 50.9583 72.9689 51.724 72.1304L82.7292 38.2293C83.4115 37.4845 83.75 36.547 83.75 35.6147C83.75 33.4793 82.0261 31.7241 79.8542 31.7241C78.7917 31.7241 77.7448 32.1512 76.9688 32.9897L48.5677 64.0418L31.3906 48.7397C30.6406 48.0783 29.7188 47.7502 28.7917 47.7502C26.6302 47.7502 24.8958 49.4949 24.8958 51.6356C24.8958 52.7033 25.3333 53.7658 26.1927 54.5366Z" fill="white"/>
</svg>
